<?xml version="1.0" encoding="utf-8"?>
<!-- Generator: Adobe Illustrator 24.0.1, SVG Export Plug-In . SVG Version: 6.00 Build 0)  -->
<svg version="1.1" id="Layer_1" xmlns="http://www.w3.org/2000/svg" xmlns:xlink="http://www.w3.org/1999/xlink" x="0px" y="0px"
	 viewBox="0 0 1920 3240" style="enable-background:new 0 0 1920 3240;" xml:space="preserve">
<g>
	<rect x="-0.5" y="-0.5" width="1921" height="3240"/>
</g>
<path style="fill:#BF8034;" d="M-0.5,1728.5c338.595,172.79,583.271,169.768,741,138c259.227-52.211,390.591-203.616,836-351
	c145.621-48.185,267.25-76.895,343-93c0-312.667,0-625.333,0-938c-316.022,1.929-632.022,1.929-948,0
	c-323.671-1.976-647.338-5.976-971-12C0.167,891.167-0.167,1309.833-0.5,1728.5z"/>
<path style="fill:#D99E32;" d="M-1,982.5c109.491-66.266,280.883-151.835,502-186c279.38-43.168,423.181,28.938,661,18
	c182.526-8.395,443.786-66.783,757-305c0-31,0-62,0-93c-639.667,6.333-1279.333,12.667-1919,19
	C-0.333,617.833-0.667,800.167-1,982.5z"/>
<path style="fill:#F2C744;" d="M0.5,850c270.807-148.492,494.028-184.03,645-190c289.251-11.437,424.011,81.289,700,55
	c254.551-24.247,451.682-132.825,574-216c0.333-166.333,0.667-332.667,1-499C1280.167,0,639.833,0-0.5,0
	C-0.167,283.333,0.167,566.667,0.5,850z"/>
</svg>
